# xmcd
#
# Track frame offsets: 
#        150
#        13854
#        26967
#        39077
#        53976
#        64116
#        77172
#        87951
#        95396
#        104581
#        116386
#        134471
#        147088
#        162749
#        174640
#        186267
#
# Disc length: 2713 seconds
#
# Revision: 0
# Processed by: cddbd v1.5.1PL0 Copyright (c) Steve Scherf et al.
# Submitted via: ExactAudioCopy v0.95a5
#
DISCID=de0a9710
DTITLE=Tøi èutory - Vlak kamarád
DYEAR=2005
DGENRE=Orthodox Country
TTITLE0=Pisen ctyricatnice z trampskeho cechu
TTITLE1=Vlak kamarad
TTITLE2=Tos me teda nastvala
TTITLE3=Taborak
TTITLE4=Posledni tramp
TTITLE5=Hlava plna ruzi
TTITLE6=Jimmy zvanej rychla noha
TTITLE7=Tri kotlíky
TTITLE8=Hymna tulacky noci
TTITLE9=Kapitan Kormoran
TTITLE10=Sazava
TTITLE11=Moc dobre to znam
TTITLE12=Osada Osaka
TTITLE13=Vandr
TTITLE14=Dymka miru
TTITLE15=Jizni mesto gud baj
EXTD=
EXTT0=
EXTT1=
EXTT2=
EXTT3=
EXTT4=
EXTT5=
EXTT6=
EXTT7=
EXTT8=
EXTT9=
EXTT10=
EXTT11=
EXTT12=
EXTT13=
EXTT14=
EXTT15=
PLAYORDER=
